<?xml version="1.0" encoding="UTF-8" standalone="no"?>
<!-- Created with Inkscape (http://www.inkscape.org/) -->

<svg
   xmlns:dc="http://purl.org/dc/elements/1.1/"
   xmlns:cc="http://creativecommons.org/ns#"
   xmlns:rdf="http://www.w3.org/1999/02/22-rdf-syntax-ns#"
   xmlns:svg="http://www.w3.org/2000/svg"
   xmlns="http://www.w3.org/2000/svg"
   xmlns:sodipodi="http://sodipodi.sourceforge.net/DTD/sodipodi-0.dtd"
   xmlns:inkscape="http://www.inkscape.org/namespaces/inkscape"
   width="210mm"
   height="297mm"
   viewBox="0 0 744.09448819 1052.3622047"
   id="svg2"
   version="1.1"
   inkscape:version="0.91 r13725"
   sodipodi:docname="snabbwall-logo.svg"
   inkscape:export-filename="/home/aperez/logo32.png"
   inkscape:export-xdpi="2.24"
   inkscape:export-ydpi="2.24">
  <defs
     id="defs4" />
  <sodipodi:namedview
     id="base"
     pagecolor="#ffffff"
     bordercolor="#666666"
     borderopacity="1.0"
     inkscape:pageopacity="0.0"
     inkscape:pageshadow="2"
     inkscape:zoom="0.64002143"
     inkscape:cx="400.1713"
     inkscape:cy="553.97457"
     inkscape:document-units="px"
     inkscape:current-layer="layer2"
     showgrid="false"
     inkscape:window-width="1920"
     inkscape:window-height="1021"
     inkscape:window-x="1920"
     inkscape:window-y="27"
     inkscape:window-maximized="1" />
  <metadata
     id="metadata7">
    <rdf:RDF>
      <cc:Work
         rdf:about="">
        <dc:format>image/svg+xml</dc:format>
        <dc:type
           rdf:resource="http://purl.org/dc/dcmitype/StillImage" />
        <dc:title />
      </cc:Work>
    </rdf:RDF>
  </metadata>
  <g
     inkscape:groupmode="layer"
     id="layer2"
     inkscape:label="Layer 2"
     style="display:inline">
    <path
       style="fill:#ffffff;fill-rule:evenodd;stroke:none;stroke-width:1px;stroke-linecap:butt;stroke-linejoin:miter;stroke-opacity:1"
       d="M 377.47852,203.06445 A 301.40472,301.40472 0 0 0 76.074219,504.4707 l 602.808591,0 A 301.40472,301.40472 0 0 0 377.47852,203.06445 Z"
       id="path4216"
       inkscape:connector-curvature="0" />
    <path
       style="fill:#d40000;fill-opacity:1;stroke:none;stroke-width:3;stroke-linejoin:round;stroke-miterlimit:4;stroke-dasharray:none;stroke-opacity:1"
       d="M 76.074219,504.4707 A 301.40472,301.40472 0 0 0 377.47852,805.875 301.40472,301.40472 0 0 0 678.88281,504.4707 l -602.808591,0 z"
       id="circle4218"
       inkscape:connector-curvature="0" />
    <g
       transform="matrix(0.70710678,0.70710678,-0.70710678,0.70710678,0,0)"
       style="font-style:normal;font-weight:normal;font-size:769.07580566px;line-height:125%;font-family:sans-serif;letter-spacing:0px;word-spacing:0px;fill:#1a1a1a;fill-opacity:1;stroke:none;stroke-width:1px;stroke-linecap:butt;stroke-linejoin:miter;stroke-opacity:1"
       id="text4256">
      <path
         d="m 607.10865,-191.84779 33.79727,0 131.64957,132.400618 -45.06304,45.063036 -71.56552,-72.31657 0,138.94436 252.57685,0 0,63.839296 -252.57685,0 0,63.8393 252.57685,0 -28.28427,63.8393 -224.29258,0 0,127.67861 -63.8393,0 0,-127.67861 -223.54152,0 -28.28427,-63.8393 251.82579,0 0,-63.8393 -251.82579,0 0,-63.839296 251.82579,0 0,-138.94436 -72.31657,72.31657 -45.06303,-45.063036 z"
         id="path4261"
         inkscape:connector-curvature="0"
         sodipodi:nodetypes="ccccccccccccccccccccccccccc"
         style="fill:#1a1a1a" />
    </g>
    <path
       inkscape:connector-curvature="0"
       id="path4271"
       d="M 377.47852,203.06445 A 301.40472,301.40472 0 0 0 76.074219,504.4707 l 602.808591,0 A 301.40472,301.40472 0 0 0 377.47852,203.06445 Z"
       style="fill:#c5ffc4;fill-rule:evenodd;stroke:none;stroke-width:1px;stroke-linecap:butt;stroke-linejoin:miter;stroke-opacity:1;fill-opacity:0.71978021" />
    <circle
       style="fill:none;fill-opacity:1;stroke:#1a1a1a;stroke-width:40;stroke-linejoin:round;stroke-miterlimit:4;stroke-dasharray:none;stroke-opacity:1"
       id="path4202"
       cx="377.47876"
       cy="504.46976"
       r="301.40472" />
  </g>
</svg>
